HIERARCHY
ROOT Hips
{
	OFFSET 0.000000 0.000000 0.000000
	CHANNELS 6 Xposition Yposition Zposition Xrotation Yrotation Zrotation
	JOINT LeftUpLeg_virtual
	{
		OFFSET 0.000000 0.000000 0.000000
		CHANNELS 3 Xrotation Yrotation Zrotation
		JOINT LeftUpLeg
		{
			OFFSET 10.205400 -3.823500 0.155100
			CHANNELS 3 Xrotation Yrotation Zrotation
			JOINT LeftLeg
			{
				OFFSET 0.708757 -12.982077 0.567790
				CHANNELS 3 Xrotation Yrotation Zrotation
				JOINT LeftFoot
				{
					OFFSET -0.708756 -10.717838 -2.184338
					CHANNELS 3 Xrotation Yrotation Zrotation
					JOINT LeftToeBase
					{
						OFFSET 0.108149 -7.191104 7.560241
						CHANNELS 3 Xrotation Yrotation Zrotation
						JOINT LeftToe_End
						{
							OFFSET 0.070230 0.081724 4.490308
							CHANNELS 3 Xrotation Yrotation Zrotation
							End Site
							{
								OFFSET 0 0 0
							}
						}
					}
				}
			}
		}
	}
	JOINT RightUpLeg_virtual
	{
		OFFSET 0.000000 0.000000 0.000000
		CHANNELS 3 Xrotation Yrotation Zrotation
		JOINT RightUpLeg
		{
			OFFSET -10.205400 -3.823500 0.005500
			CHANNELS 3 Xrotation Yrotation Zrotation
			JOINT RightLeg
			{
				OFFSET -0.708756 -12.982134 0.610632
				CHANNELS 3 Xrotation Yrotation Zrotation
				JOINT RightFoot
				{
					OFFSET 0.708754 -10.717769 -1.945823
					CHANNELS 3 Xrotation Yrotation Zrotation
					JOINT RightToeBase
					{
						OFFSET -0.108140 -7.191069 7.372968
						CHANNELS 3 Xrotation Yrotation Zrotation
						JOINT RightToe_End
						{
							OFFSET -0.070227 0.081735 4.479403
							CHANNELS 3 Xrotation Yrotation Zrotation
							End Site
							{
								OFFSET 0 0 0
							}
						}
					}
				}
			}
		}
	}
	JOINT Spine_virtual
	{
		OFFSET 0.000000 0.000000 0.000000
		CHANNELS 3 Xrotation Yrotation Zrotation
		JOINT Spine
		{
			OFFSET 0.000000 6.876099 0.125700
			CHANNELS 3 Xrotation Yrotation Zrotation
			JOINT Spine1
			{
				OFFSET 0.000000 5.730043 0.104720
				CHANNELS 3 Xrotation Yrotation Zrotation
				JOINT Spine1_split
				{
					OFFSET 0.000000 5.730043 0.104720
					CHANNELS 3 Xrotation Yrotation Zrotation
					JOINT Spine2
					{
						OFFSET 0.000000 5.730043 0.104720
						CHANNELS 3 Xrotation Yrotation Zrotation
						JOINT Neck_virtual
						{
							OFFSET 0.000000 0.000000 0.000000
							CHANNELS 3 Xrotation Yrotation Zrotation
							JOINT Neck
							{
								OFFSET 0.000000 10.314075 0.188496
								CHANNELS 3 Xrotation Yrotation Zrotation
								JOINT Head
								{
									OFFSET 0.000000 7.643700 -2.377400
									CHANNELS 3 Xrotation Yrotation Zrotation
									JOINT HeadTop_End
									{
										OFFSET 0.000000 43.788605 -13.619600
										CHANNELS 3 Xrotation Yrotation Zrotation
										End Site
										{
											OFFSET 0 0 0
										}
									}
								}
							}
						}
						JOINT LeftShoulder_virtual
						{
							OFFSET 0.000000 0.000000 0.000000
							CHANNELS 3 Xrotation Yrotation Zrotation
							JOINT LeftShoulder
							{
								OFFSET 2.196100 4.412489 0.087492
								CHANNELS 3 Xrotation Yrotation Zrotation
								JOINT LeftShoulder_split
								{
									OFFSET 2.196100 4.412489 0.087492
									CHANNELS 3 Xrotation Yrotation Zrotation
									JOINT LeftArm
									{
										OFFSET 8.771219 -2.981674 -0.026999
										CHANNELS 3 Xrotation Yrotation Zrotation
										JOINT LeftForeArm
										{
											OFFSET 8.512804 0.000000 -0.000000
											CHANNELS 3 Xrotation Yrotation Zrotation
											JOINT LeftHand
											{
												OFFSET 18.484802 0.000000 -0.000000
												CHANNELS 3 Xrotation Yrotation Zrotation
												End Site
												{
													OFFSET 0 0 0
												}
											}
										}
									}
								}
							}
						}
						JOINT RightShoulder_virtual
						{
							OFFSET 0.000000 0.000000 0.000000
							CHANNELS 3 Xrotation Yrotation Zrotation
							JOINT RightShoulder
							{
								OFFSET -2.196100 4.412496 0.070690
								CHANNELS 3 Xrotation Yrotation Zrotation
								JOINT RightShoulder_split
								{
									OFFSET -2.196100 4.412496 0.070690
									CHANNELS 3 Xrotation Yrotation Zrotation
									JOINT RightArm
									{
										OFFSET -8.771282 -2.981682 -0.094208
										CHANNELS 3 Xrotation Yrotation Zrotation
										JOINT RightForeArm
										{
											OFFSET -8.494598 0.000000 0.000000
											CHANNELS 3 Xrotation Yrotation Zrotation
											JOINT RightHand
											{
												OFFSET -18.483803 0.000000 0.000001
												CHANNELS 3 Xrotation Yrotation Zrotation
												End Site
												{
													OFFSET 0 0 0
												}
											}
										}
									}
								}
							}
						}
					}
				}
			}
		}
	}
}
MOTION
Frames: 5
Frame Time: 0.03333333
1.540547 32.034786 -6.077950 0.000000 0.000000 0.000000 5.203982 -44.624430 2.129928 -36.715593 2.173110 17.094090 33.076765 -9.938491 2.124893 10.152238 -6.856692 -16.957369 -7.788699 -2.378461 -2.952716 0.000000 0.000000 0.000000 6.125255 -40.728322 2.035677 13.237485 -22.437824 -6.713222 18.735031 9.844968 -1.320261 -37.049012 -27.789274 22.994728 1.591073 5.769173 -16.263980 0.000000 0.000000 0.000000 1.803653 -36.266628 0.569059 1.382249 6.313127 -0.095791 11.910684 6.861562 -0.853572 0.105112 -1.205119 0.026277 0.000000 0.000000 0.000000 14.459671 8.402429 -1.605256 -6.583995 5.518456 0.960418 -5.859927 -5.132737 9.327865 0.000000 0.000000 0.000000 9.783841 7.109705 -1.290436 2.475269 -3.010651 -1.456255 5.481119 1.404086 -8.877719 -25.307739 11.109752 -59.701365 -1.317346 -46.204539 -8.978288 0.000000 0.000000 0.000000 12.761009 7.198806 -0.231291 0.793563 -1.382119 4.175726 -4.738588 9.015237 -0.000402 0.871448 -25.189350 56.297578 -15.015638 36.232152 13.845508 0.000000 0.000000 0.000000 
1.565405 32.451187 -5.915478 0.000000 0.000000 0.000000 6.749790 -43.402567 2.469275 -35.878871 1.415994 16.567044 30.406319 -9.192344 2.661206 7.833033 -6.167937 -14.904499 -5.676713 -2.051461 -4.504073 0.000000 0.000000 0.000000 6.993075 -40.126849 2.231778 12.396444 -22.975792 -7.108840 15.339886 9.884731 -0.577565 -36.364375 -26.503938 21.631740 2.876456 5.521290 -15.535216 0.000000 0.000000 0.000000 3.618008 -36.362821 0.801759 0.584629 6.071420 0.347310 12.233597 6.696952 -0.858324 0.088161 -0.937177 0.031522 0.000000 0.000000 0.000000 14.401447 8.194318 -1.440408 -6.583726 5.440914 1.205413 -6.566798 -3.132945 9.125275 0.000000 0.000000 0.000000 10.136672 6.970158 -1.289326 2.617417 -2.736008 -1.340608 4.922166 2.798827 -8.488828 -24.130409 12.715897 -59.817089 -0.766699 -45.042782 -8.381442 0.000000 0.000000 0.000000 13.332676 7.162377 -0.404100 0.825440 -0.275369 4.400161 -6.656566 7.904974 -1.052348 -1.322413 -25.084281 55.428109 -15.632833 37.210792 13.950046 0.000000 0.000000 0.000000 
1.745625 32.915466 -5.850044 0.000000 0.000000 0.000000 8.523186 -41.868134 2.991913 -34.876862 1.382549 15.805181 26.078989 -8.171349 3.341381 5.900170 -4.993383 -15.818161 -1.988426 -1.983320 -4.755270 0.000000 0.000000 0.000000 8.318619 -39.580557 2.757360 9.036830 -22.591290 -7.745465 13.977338 10.157746 0.553839 -34.156400 -24.039194 17.258274 2.850977 5.088036 -13.552859 0.000000 0.000000 0.000000 6.164249 -36.227941 1.150440 0.129826 5.465162 0.810946 12.553034 6.269046 -0.954266 0.164740 -0.683448 0.038205 0.000000 0.000000 0.000000 14.403511 7.709919 -1.397433 -7.790466 5.716744 2.136510 -7.717752 -0.145072 9.062897 0.000000 0.000000 0.000000 10.588967 6.542573 -1.455804 2.775484 -2.223005 -0.458325 4.271532 3.666550 -7.319744 -22.886907 14.816412 -61.460733 0.364541 -44.356051 -7.106979 0.000000 0.000000 0.000000 13.902465 6.850219 -0.755974 1.209740 1.416907 4.455957 -7.374545 6.214640 -1.218311 -4.902190 -22.803596 54.113741 -16.422681 37.859353 13.592164 0.000000 0.000000 0.000000 
2.059196 33.213661 -5.849648 0.000000 0.000000 0.000000 10.352738 -40.839648 3.762136 -34.642334 1.921642 14.527179 21.938791 -7.355654 4.445166 5.514913 -3.884446 -19.686782 1.522773 -2.068613 -3.556287 0.000000 0.000000 0.000000 9.986027 -39.170981 3.622108 3.772360 -21.517053 -7.982237 15.701292 10.814532 1.721989 -31.541998 -20.863168 9.860806 1.199849 4.310356 -10.871223 0.000000 0.000000 0.000000 8.718329 -35.593000 1.683673 0.151241 4.543270 1.145911 12.893500 5.583703 -1.174591 0.200193 -0.400336 0.053857 0.000000 0.000000 0.000000 14.613009 6.999251 -1.562891 -10.117959 6.209572 3.725005 -9.273962 3.785106 9.286120 0.000000 0.000000 0.000000 11.200539 5.838710 -1.794733 2.960279 -1.612370 1.006960 3.921998 3.772540 -5.778180 -22.390362 16.311714 -64.016392 1.668856 -43.155826 -5.497486 0.000000 0.000000 0.000000 14.513997 6.274683 -1.236380 1.918788 3.477433 4.407523 -7.397972 4.387972 -0.753846 -8.977225 -18.559345 53.254620 -17.274581 38.324099 12.771426 0.000000 0.000000 0.000000 
2.417316 33.170326 -5.830683 0.000000 0.000000 0.000000 12.141395 -39.951617 4.840926 -35.975764 3.570279 12.744985 19.254501 -6.332998 5.985214 6.183191 -3.275421 -24.007738 3.426452 -2.291895 -1.249817 0.000000 0.000000 0.000000 11.564005 -38.915153 4.631658 -3.283834 -20.387995 -7.606601 21.398332 11.882732 2.520537 -28.995085 -17.501945 0.762615 -1.784223 3.219077 -8.676877 0.000000 0.000000 0.000000 10.817048 -34.091629 2.333925 0.701922 3.464611 1.225494 13.340811 4.695693 -1.537989 0.274555 -0.189686 0.164293 0.000000 0.000000 0.000000 15.066434 6.110066 -1.951233 -13.390124 6.716853 5.780203 -11.267706 8.264106 9.974526 0.000000 0.000000 0.000000 12.014896 4.907873 -2.293520 3.171866 -1.083857 2.797197 3.760813 2.974811 -4.264523 -22.706435 16.614623 -66.482234 2.557779 -41.049201 -4.023526 0.000000 0.000000 0.000000 15.190197 5.463638 -1.789784 2.843172 5.611741 4.134042 -7.223550 3.150417 -0.029028 -13.056163 -13.301259 53.139517 -18.490736 39.397310 11.834793 0.000000 0.000000 0.000000 
